<svg id="Layer_1" data-name="Layer 1" xmlns="http://www.w3.org/2000/svg" viewBox="0 0 1000 1000"><defs><style>.cls-1{stroke:#000;stroke-miterlimit:10;stroke-width:2px;}</style></defs><title>Rise_NewLogo_Black</title><path class="cls-1" d="M446.55,606.24l6.67,5-.52.88v6l.52.88-3.4,2.51,3.4,2.56-.52.83v5.86l.52.83-6.67,5H426.4l1.51-1.77V608l-1.51-1.76ZM434.3,618.46h10l2-1.44v-3.35l-2-1.44h-10Zm12,7.44-2-1.44h-10v6.18h10l2-1.44Z"/><path class="cls-1" d="M485.79,606.24l6.68,5-.52.92v6.1l.52,1L486.08,624l6.34,10.83,2.31,1.77H483.14l1.72-1.73-6.23-10.64H474v10.6l1.9,1.77h-9.79l1.51-1.77V608.05l-1.51-1.81Zm-2.14,6H474v6h9.62l1.93-1.45v-3.16Z"/><polygon class="cls-1" points="515.53 618.84 523.62 618.84 525.43 617.35 525.43 626.37 523.62 624.83 515.53 624.83 515.53 630.64 529.16 630.64 530.96 629.15 530.96 636.64 507.64 636.64 509.15 634.87 509.15 608 507.64 606.24 530.01 606.24 530.01 613.72 528.21 612.23 515.53 612.23 515.53 618.84"/><polygon class="cls-1" points="559.13 606.24 568.45 606.24 566.79 608.05 570.6 622.02 575.21 607.91 573.79 606.24 584.43 606.24 582.49 608.05 574.02 634.87 575.87 636.63 565.23 636.63 567.06 634.88 563.55 621.86 560.03 634.87 561.91 636.63 551.88 636.63 553.68 634.87 545.6 608.05 543.7 606.24 554.25 606.24 552.85 607.89 557.09 622.1 560.78 608.05 559.13 606.24"/><polygon class="cls-1" points="597.25 606.24 606.71 606.24 605.15 608 605.15 634.87 606.71 636.63 597.25 636.63 598.76 634.87 598.76 608 597.25 606.24"/><polygon class="cls-1" points="627.88 607.87 639.23 623.99 639.23 608 637.67 606.24 647.13 606.24 645.62 608 645.62 634.87 647.13 636.64 637.91 636.64 639.26 634.83 627.88 618.57 627.88 634.87 629.44 636.64 619.98 636.64 621.49 634.87 621.49 608 619.98 606.24 628.97 606.24 627.88 607.87"/><polygon class="cls-1" points="685.54 632.03 679.43 636.64 666.76 636.64 660.09 631.62 660.61 630.78 660.61 612.14 660.09 611.26 666.76 606.24 684.55 606.24 684.55 613.72 682.74 612.23 668.9 612.23 666.99 613.67 666.99 629.2 668.91 630.64 677.21 630.64 679.15 629.18 679.15 620.27 677.64 618.51 687.1 618.51 685.54 620.27 685.54 632.03"/><polygon class="cls-1" points="733.01 630.64 747.32 630.64 749.12 629.15 749.12 636.64 730.86 636.64 724.19 631.61 724.71 630.78 724.71 612.14 724.19 611.26 730.86 606.24 748.17 606.24 748.17 613.72 746.37 612.23 733 612.23 731.09 613.67 731.09 629.2 733.01 630.64"/><path class="cls-1" d="M789.28,631.61l-6.63,5H769.22l-6.62-5,.52-.83V612.14l-.52-.88,6.67-5h13.38l6.63,5-.48.93v18.64Zm-6.86-2.43V613.72l-2-1.49h-8.94l-2,1.44v15.49l2,1.48h9Z"/><rect class="cls-1" x="803.55" y="630.69" width="6.39" height="5.95"/><polygon class="cls-1" points="232.19 607.87 243.55 623.99 243.55 608 241.99 606.24 251.45 606.24 249.93 608 249.93 634.87 251.45 636.64 242.22 636.64 243.58 634.83 232.19 618.57 232.19 634.87 233.76 636.64 224.29 636.64 225.81 634.87 225.81 608 224.29 606.24 233.28 606.24 232.19 607.87"/><polygon class="cls-1" points="264.71 606.24 274.17 606.24 272.61 608 272.61 634.87 274.17 636.63 264.71 636.63 266.22 634.87 266.22 608 264.71 606.24"/><polygon class="cls-1" points="310.32 612.23 302.99 612.23 302.99 634.87 304.51 636.64 295.09 636.64 296.61 634.87 296.61 612.23 289.23 612.23 287.43 613.72 287.43 606.24 312.17 606.24 312.17 613.72 310.32 612.23"/><path class="cls-1" d="M345,606.24l6.68,5-.52.92v6.1l.52,1L345.31,624l6.34,10.83,2.31,1.77H342.37l1.72-1.73-6.23-10.64h-4.62v10.6l1.9,1.77h-9.79l1.51-1.77V608.05l-1.51-1.81Zm-2.14,6h-9.64v6h9.62l1.93-1.45v-3.16Z"/><path class="cls-1" d="M392.43,631.61l-6.62,5H372.38l-6.62-5,.52-.83V612.14l-.52-.88,6.67-5h13.38l6.62,5-.47.93v18.64Zm-6.85-2.43V613.72l-2-1.49h-8.94l-2,1.44v15.49l1.95,1.48h9.05Z"/><path d="M346.73,568.73q-24.21,1.37-37.58-30.67-9.4-22.81-13-29.64-2.89-5.44-10.48-15h-13v47.7a32.29,32.29,0,0,0,8.29,21.81H214.66a34.15,34.15,0,0,0,7.56-21.81V376.56a32.37,32.37,0,0,0-7.92-21.81h79.24q74.93,0,75.65,71.9,0,40.2-34.58,57.58a111.8,111.8,0,0,1,18.37,30q7.2,17.37,11.53,23.51a37.29,37.29,0,0,0,20.17,12.94,97,97,0,0,1-11.57,8.86q-14.44,8.52-26.38,9.2M282.81,397H272.65v55.88H283.9q19.23,0,28.3-5.82,10.53-7.2,10.52-24.68l-.36-1q0-16.12-12.34-21.26Q302.4,397,282.81,397M399.44,562.94a34.07,34.07,0,0,0,7.93-21.81V376.56a31.55,31.55,0,0,0-8.29-21.81H465a36.66,36.66,0,0,0-7.2,22.15V541.13a35.18,35.18,0,0,0,7.2,21.81Zm166.85,4.77q-6.12,0-42.14-6.18c-4.09-.87-7.09-1.2-9-1q-6.84,0-19.81,11.58v-82.8q29.54,32.71,66.28,32.71,30.25,0,30.26-20.4,0-14.62-29.18-26.86Q528.1,460.17,517.3,452q-20.53-16-20.53-42.85,0-28.56,20.53-43.52Q536,352,566.65,352a80.79,80.79,0,0,1,20.89,3.24q11.9,3.24,16.93,3.58,5.4,0,15.13-10.23v77q-27.37-31-56.91-31-15.5,0-15.49,10.88,0,7.49,8.29,11.22Q565.93,420.8,586.1,429q56.19,23.48,56.19,66.32,0,29.58-22.51,51t-53.49,21.42m229.19-4.77H662.92a35.06,35.06,0,0,0,7.56-21.81V376.56a32.37,32.37,0,0,0-7.92-21.81h130V402.8a39.21,39.21,0,0,0-22.7-7.5h-49V427h36.74q8.64,0,18-5.79V473q-10.45-5.46-18.37-5.45H720.92v54.85h56.91q11.16,0,25.93-8.17Z"/></svg>